<svg width="10" height="6" viewBox="0 0 10 6" fill="none" xmlns="http://www.w3.org/2000/svg">
<path d="M8.97741 0.808034C8.8602 0.690865 8.70126 0.625042 8.53553 0.625042C8.36981 0.625042 8.21086 0.690865 8.09366 0.808034L4.99991 3.90178L1.90616 0.808034C1.78828 0.694185 1.63041 0.631189 1.46653 0.632613C1.30266 0.634037 1.1459 0.699767 1.03002 0.815647C0.914142 0.931527 0.848412 1.08829 0.846988 1.25216C0.845564 1.41603 0.90856 1.57391 1.02241 1.69178L4.55803 5.22741C4.67524 5.34458 4.83418 5.4104 4.99991 5.4104C5.16564 5.4104 5.32458 5.34458 5.44178 5.22741L8.97741 1.69178C9.09458 1.57458 9.1604 1.41564 9.1604 1.24991C9.1604 1.08418 9.09458 0.925239 8.97741 0.808034Z" fill="#251814"/>
</svg>
